<svg xmlns="http://www.w3.org/2000/svg" viewBox="0 0 100 100" fill="none">
  <circle cx="50" cy="50" r="50" fill="#2775CA"/>
  <path d="M50 18c17.673 0 32 14.327 32 32S67.673 82 50 82 18 67.673 18 50s14.327-32 32-32z" fill="#2775CA"/>
  <path d="M63.4 57.8c0-5.4-3.6-7.2-10.8-8-5.2-.6-6.2-1.8-6.2-4 0-2.2 1.6-3.6 4.8-3.6 2.8 0 4.4 1 5.2 3.4.2.4.6.6 1 .6h2.4c.6 0 1-.4 1-1v-.2c-.8-3.8-3.6-6.2-7.4-6.8V35c0-.6-.4-1-1.2-1.2h-2.2c-.6 0-1.2.4-1.2 1.2v3.2c-5 1-8.2 4.4-8.2 8.6 0 5.2 3.4 7 10.6 7.8 4.8.8 6.4 1.6 6.4 4.2 0 2.6-2.2 4.4-5.4 4.4-4 0-5.4-1.8-6-3.6-.2-.4-.6-.8-1-.8h-2.6c-.6 0-1 .4-1 1v.2c.8 4 3.6 6.4 8.2 7.2V70c0 .6.4 1 1.2 1.2h2.2c.6 0 1.2-.4 1.2-1.2v-3.2c5-1.2 8-4.6 8-8.8z" fill="white"/>
</svg>
