<svg xmlns="http://www.w3.org/2000/svg" viewBox="0 0 100 100" fill="none">
  <defs>
    <linearGradient id="sol" x1="0%" y1="0%" x2="100%" y2="100%">
      <stop offset="0%" stop-color="#9945FF"/>
      <stop offset="50%" stop-color="#14F195"/>
      <stop offset="100%" stop-color="#00D1FF"/>
    </linearGradient>
  </defs>
  <circle cx="50" cy="50" r="48" fill="black"/>
  <g transform="translate(20, 28) scale(0.6)">
    <path d="M16.5 70.2h78.2c1.2 0 2.3-.5 3.1-1.3l10.7-10.7c1.7-1.7.5-4.6-1.9-4.6H28.4c-1.2 0-2.3.5-3.1 1.3L14.6 65.6c-1.7 1.7-.5 4.6 1.9 4.6z" fill="url(#sol)"/>
    <path d="M16.5 22.4h78.2c1.2 0 2.3.5 3.1 1.3l10.7 10.7c1.7 1.7.5 4.6-1.9 4.6H28.4c-1.2 0-2.3-.5-3.1-1.3L14.6 27c-1.7-1.7-.5-4.6 1.9-4.6z" fill="url(#sol)"/>
    <path d="M28.4 47.5h78.2c2.4 0 3.6-2.9 1.9-4.6L97.8 32.2c-.8-.8-1.9-1.3-3.1-1.3H16.5c-2.4 0-3.6 2.9-1.9 4.6l10.7 10.7c.8.8 1.9 1.3 3.1 1.3z" fill="url(#sol)"/>
  </g>
</svg>
